<svg version="1.1" width="482" height="362" viewBox="-1 -1 482 362" xmlns="http://www.w3.org/2000/svg" xmlns:xlink="http://www.w3.org/1999/xlink">
  <!-- Exported by Scratch - http://scratch.mit.edu/ -->
  <path id="ID0.3887808881700039" fill="#1F1F1F" stroke="none" d="M 0 0 L 480 0 L 480 360 L 0 360 L 0 0 Z "/>
  <g id="ID0.0206039035692811" transform="matrix(1, 0, 0, 1, 9, 15)">
    <g id="ID0.04479216318577528">
      <path id="ID0.22908909199759364" fill="none" stroke="rgb(255,0,0)" stroke-width="2.71" d="M 65.007 18.937 C 65.007 17.552 64.457 16.224 63.478 15.245 C 62.499 14.266 61.171 13.716 59.786 13.716 C 52.023 13.716 37.522 13.716 29.759 13.716 C 28.374 13.716 27.046 14.266 26.067 15.245 C 25.088 16.224 24.538 17.552 24.538 18.937 C 24.538 26.700 24.538 41.201 24.538 48.964 C 24.538 50.349 25.088 51.677 26.067 52.656 C 27.046 53.635 28.374 54.185 29.759 54.185 C 37.522 54.185 52.023 54.185 59.786 54.185 C 61.171 54.185 62.499 53.635 63.478 52.656 C 64.457 51.677 65.007 50.349 65.007 48.964 C 65.007 41.201 65.007 26.700 65.007 18.937 Z " transform="matrix(2.1804099082946777, 0, 0, 2.1804099082946777, -49.3, -25.65)"/>
    </g>
    <g id="ID0.21835426753386855">
      <g id="ID0.280217710416764">
        <path id="ID0.07655191188678145" fill="none" stroke="rgb(255,0,0)" stroke-width="2.71" d="M 0 -4.377 C 1.208 -4.377 2.302 -3.887 3.094 -3.094 C 3.887 -2.302 4.377 -1.208 4.377 0 C 4.377 1.208 3.887 2.302 3.094 3.094 C 2.302 3.887 1.208 4.377 0 4.377 C -1.208 4.377 -2.302 3.887 -3.094 3.094 C -3.887 2.302 -4.377 1.208 -4.377 0 C -4.377 -1.208 -3.887 -2.302 -3.094 -3.094 C -2.302 -3.887 -1.208 -4.377 0 -4.377 Z " transform="matrix(-1.6535377502441406, 1.4212675094604492, -1.4212675094604492, -1.6535377502441406, 27.3, 26.85)"/>
      </g>
      <g id="ID0.09996025264263153">
        <path id="ID0.22945085912942886" fill="none" stroke="rgb(255,0,0)" stroke-width="2.71" d="M 0 -4.377 C 1.208 -4.377 2.302 -3.887 3.094 -3.094 C 3.887 -2.302 4.377 -1.208 4.377 0 C 4.377 1.208 3.887 2.302 3.094 3.094 C 2.302 3.887 1.208 4.377 0 4.377 C -1.208 4.377 -2.302 3.887 -3.094 3.094 C -3.887 2.302 -4.377 1.208 -4.377 0 C -4.377 -1.208 -3.887 -2.302 -3.094 -3.094 C -2.302 -3.887 -1.208 -4.377 0 -4.377 Z " transform="matrix(-1.6535377502441406, 1.4212675094604492, -1.4212675094604492, -1.6535377502441406, 68.25, 26.85)"/>
      </g>
    </g>
    <g id="ID0.4382844944484532">
      <g id="ID0.04680823301896453">
        <path id="ID0.7281633177772164" fill="none" stroke="rgb(255,0,0)" stroke-width="2.71" d="M 0 -4.377 C 1.208 -4.377 2.302 -3.887 3.094 -3.094 C 3.887 -2.302 4.377 -1.208 4.377 0 C 4.377 1.208 3.887 2.302 3.094 3.094 C 2.302 3.887 1.208 4.377 0 4.377 C -1.208 4.377 -2.302 3.887 -3.094 3.094 C -3.887 2.302 -4.377 1.208 -4.377 0 C -4.377 -1.208 -3.887 -2.302 -3.094 -3.094 C -2.302 -3.887 -1.208 -4.377 0 -4.377 Z " transform="matrix(-1.6535377502441406, 1.4212675094604492, -1.4212675094604492, -1.6535377502441406, 27.6, 67.5)"/>
      </g>
      <g id="ID0.9687464130111039">
        <path id="ID0.8583137760870159" fill="none" stroke="rgb(255,0,0)" stroke-width="2.71" d="M 0 -4.377 C 1.208 -4.377 2.302 -3.887 3.094 -3.094 C 3.887 -2.302 4.377 -1.208 4.377 0 C 4.377 1.208 3.887 2.302 3.094 3.094 C 2.302 3.887 1.208 4.377 0 4.377 C -1.208 4.377 -2.302 3.887 -3.094 3.094 C -3.887 2.302 -4.377 1.208 -4.377 0 C -4.377 -1.208 -3.887 -2.302 -3.094 -3.094 C -2.302 -3.887 -1.208 -4.377 0 -4.377 Z " transform="matrix(-1.6535377502441406, 1.4212675094604492, -1.4212675094604492, -1.6535377502441406, 68.6, 67.5)"/>
      </g>
    </g>
  </g>
  <g id="ID0.30151822697371244" transform="matrix(1, 0, 0, 1, 9, 15)">
    <path id="ID0.6450693253427744" fill="none" stroke="rgb(0,107,255)" stroke-width="2.71" d="M 65.007 18.937 C 65.007 17.552 64.457 16.224 63.478 15.245 C 62.499 14.266 61.171 13.716 59.786 13.716 C 52.023 13.716 37.522 13.716 29.759 13.716 C 28.374 13.716 27.046 14.266 26.067 15.245 C 25.088 16.224 24.538 17.552 24.538 18.937 C 24.538 26.700 24.538 41.201 24.538 48.964 C 24.538 50.349 25.088 51.677 26.067 52.656 C 27.046 53.635 28.374 54.185 29.759 54.185 C 37.522 54.185 52.023 54.185 59.786 54.185 C 61.171 54.185 62.499 53.635 63.478 52.656 C 64.457 51.677 65.007 50.349 65.007 48.964 C 65.007 41.201 65.007 26.700 65.007 18.937 Z " transform="matrix(2.1804099082946777, 0, 0, 2.1804099082946777, 71.45, -25.2)"/>
  </g>
  <g id="ID0.9444037592038512" transform="matrix(1, 0, 0, 1, 9, 15)">
    <path id="ID0.8101683091372252" fill="none" stroke="rgb(0,107,255)" stroke-width="2.71" d="M 0 -4.377 C 1.208 -4.377 2.302 -3.887 3.094 -3.094 C 3.887 -2.302 4.377 -1.208 4.377 0 C 4.377 1.208 3.887 2.302 3.094 3.094 C 2.302 3.887 1.208 4.377 0 4.377 C -1.208 4.377 -2.302 3.887 -3.094 3.094 C -3.887 2.302 -4.377 1.208 -4.377 0 C -4.377 -1.208 -3.887 -2.302 -3.094 -3.094 C -2.302 -3.887 -1.208 -4.377 0 -4.377 Z " transform="matrix(-1.6535377502441406, 1.4212675094604492, -1.4212675094604492, -1.6535377502441406, 169.1, 48.75)"/>
  </g>
  <g id="ID0.8531603384763002" transform="matrix(1, 0, 0, 1, 9, 15)">
    <path id="ID0.09341904381290078" fill="none" stroke="rgb(0,231,75)" stroke-width="2.71" d="M 65.007 18.937 C 65.007 17.552 64.457 16.224 63.478 15.245 C 62.499 14.266 61.171 13.716 59.786 13.716 C 52.023 13.716 37.522 13.716 29.759 13.716 C 28.374 13.716 27.046 14.266 26.067 15.245 C 25.088 16.224 24.538 17.552 24.538 18.937 C 24.538 26.700 24.538 41.201 24.538 48.964 C 24.538 50.349 25.088 51.677 26.067 52.656 C 27.046 53.635 28.374 54.185 29.759 54.185 C 37.522 54.185 52.023 54.185 59.786 54.185 C 61.171 54.185 62.499 53.635 63.478 52.656 C 64.457 51.677 65.007 50.349 65.007 48.964 C 65.007 41.201 65.007 26.700 65.007 18.937 Z " transform="matrix(2.1804099082946777, 0, 0, 2.1804099082946777, 192.45, -24.75)"/>
  </g>
  <g id="ID0.2744594174437225" transform="matrix(1, 0, 0, 1, 9, 15)">
    <path id="ID0.3856015973724425" fill="none" stroke="rgb(0,231,75)" stroke-width="2.71" d="M 65.007 18.937 C 65.007 17.552 64.457 16.224 63.478 15.245 C 62.499 14.266 61.171 13.716 59.786 13.716 C 52.023 13.716 37.522 13.716 29.759 13.716 C 28.374 13.716 27.046 14.266 26.067 15.245 C 25.088 16.224 24.538 17.552 24.538 18.937 C 24.538 26.700 24.538 41.201 24.538 48.964 C 24.538 50.349 25.088 51.677 26.067 52.656 C 27.046 53.635 28.374 54.185 29.759 54.185 C 37.522 54.185 52.023 54.185 59.786 54.185 C 61.171 54.185 62.499 53.635 63.478 52.656 C 64.457 51.677 65.007 50.349 65.007 48.964 C 65.007 41.201 65.007 26.700 65.007 18.937 Z " transform="matrix(2.1804099082946777, 0, 0, 2.1804099082946777, -49.3, 92.5)"/>
  </g>
  <g id="ID0.4763208837248385" transform="matrix(1, 0, 0, 1, 9, 15)">
    <path id="ID0.20117432810366154" fill="none" stroke="rgb(255,0,0)" stroke-width="2.71" d="M 65.007 18.937 C 65.007 17.552 64.457 16.224 63.478 15.245 C 62.499 14.266 61.171 13.716 59.786 13.716 C 52.023 13.716 37.522 13.716 29.759 13.716 C 28.374 13.716 27.046 14.266 26.067 15.245 C 25.088 16.224 24.538 17.552 24.538 18.937 C 24.538 26.700 24.538 41.201 24.538 48.964 C 24.538 50.349 25.088 51.677 26.067 52.656 C 27.046 53.635 28.374 54.185 29.759 54.185 C 37.522 54.185 52.023 54.185 59.786 54.185 C 61.171 54.185 62.499 53.635 63.478 52.656 C 64.457 51.677 65.007 50.349 65.007 48.964 C 65.007 41.201 65.007 26.700 65.007 18.937 Z " transform="matrix(2.1804099082946777, 0, 0, 2.1804099082946777, 192.45, 93.25)"/>
  </g>
  <g id="ID0.4613239290192723" transform="matrix(1, 0, 0, 1, 9, 15)">
    <path id="ID0.3529637358151376" fill="none" stroke="rgb(0,231,75)" stroke-width="2.71" d="M 65.007 18.937 C 65.007 17.552 64.457 16.224 63.478 15.245 C 62.499 14.266 61.171 13.716 59.786 13.716 C 52.023 13.716 37.522 13.716 29.759 13.716 C 28.374 13.716 27.046 14.266 26.067 15.245 C 25.088 16.224 24.538 17.552 24.538 18.937 C 24.538 26.700 24.538 41.201 24.538 48.964 C 24.538 50.349 25.088 51.677 26.067 52.656 C 27.046 53.635 28.374 54.185 29.759 54.185 C 37.522 54.185 52.023 54.185 59.786 54.185 C 61.171 54.185 62.499 53.635 63.478 52.656 C 64.457 51.677 65.007 50.349 65.007 48.964 C 65.007 41.201 65.007 26.700 65.007 18.937 Z " transform="matrix(2.1804099082946777, 0, 0, 2.1804099082946777, 313.35, 93.7)"/>
  </g>
  <g id="ID0.8735560369677842" transform="matrix(1, 0, 0, 1, 9, 15)">
    <path id="ID0.9547706595622003" fill="none" stroke="rgb(0,231,75)" stroke-width="2.71" d="M 0 -4.377 C 1.208 -4.377 2.302 -3.887 3.094 -3.094 C 3.887 -2.302 4.377 -1.208 4.377 0 C 4.377 1.208 3.887 2.302 3.094 3.094 C 2.302 3.887 1.208 4.377 0 4.377 C -1.208 4.377 -2.302 3.887 -3.094 3.094 C -3.887 2.302 -4.377 1.208 -4.377 0 C -4.377 -1.208 -3.887 -2.302 -3.094 -3.094 C -2.302 -3.887 -1.208 -4.377 0 -4.377 Z " transform="matrix(-1.6535377502441406, 1.4212675094604492, -1.4212675094604492, -1.6535377502441406, 411.05, 167.7)"/>
  </g>
  <g id="ID0.45203743409365416" transform="matrix(1, 0, 0, 1, 9, 15)">
    <path id="ID0.13564786408096552" fill="none" stroke="rgb(255,0,248)" stroke-width="2.71" d="M 65.007 18.937 C 65.007 17.552 64.457 16.224 63.478 15.245 C 62.499 14.266 61.171 13.716 59.786 13.716 C 52.023 13.716 37.522 13.716 29.759 13.716 C 28.374 13.716 27.046 14.266 26.067 15.245 C 25.088 16.224 24.538 17.552 24.538 18.937 C 24.538 26.700 24.538 41.201 24.538 48.964 C 24.538 50.349 25.088 51.677 26.067 52.656 C 27.046 53.635 28.374 54.185 29.759 54.185 C 37.522 54.185 52.023 54.185 59.786 54.185 C 61.171 54.185 62.499 53.635 63.478 52.656 C 64.457 51.677 65.007 50.349 65.007 48.964 C 65.007 41.201 65.007 26.700 65.007 18.937 Z " transform="matrix(2.1804099082946777, 0, 0, 2.1804099082946777, -49.3, 210.55)"/>
  </g>
  <g id="ID0.11528215883299708" transform="matrix(1, 0, 0, 1, 9, 15)">
    <path id="ID0.688511117361486" fill="none" stroke="rgb(255,0,248)" stroke-width="2.71" d="M 0 -4.377 C 1.208 -4.377 2.302 -3.887 3.094 -3.094 C 3.887 -2.302 4.377 -1.208 4.377 0 C 4.377 1.208 3.887 2.302 3.094 3.094 C 2.302 3.887 1.208 4.377 0 4.377 C -1.208 4.377 -2.302 3.887 -3.094 3.094 C -3.887 2.302 -4.377 1.208 -4.377 0 C -4.377 -1.208 -3.887 -2.302 -3.094 -3.094 C -2.302 -3.887 -1.208 -4.377 0 -4.377 Z " transform="matrix(-1.6535377502441406, 1.4212675094604492, -1.4212675094604492, -1.6535377502441406, 48.1, 284.6)"/>
  </g>
  <g id="ID0.49811321403831244" transform="matrix(1, 0, 0, 1, 9, 15)">
    <path id="ID0.6831439528614283" fill="none" stroke="rgb(255,150,0)" stroke-width="2.71" d="M 65.007 18.937 C 65.007 17.552 64.457 16.224 63.478 15.245 C 62.499 14.266 61.171 13.716 59.786 13.716 C 52.023 13.716 37.522 13.716 29.759 13.716 C 28.374 13.716 27.046 14.266 26.067 15.245 C 25.088 16.224 24.538 17.552 24.538 18.937 C 24.538 26.700 24.538 41.201 24.538 48.964 C 24.538 50.349 25.088 51.677 26.067 52.656 C 27.046 53.635 28.374 54.185 29.759 54.185 C 37.522 54.185 52.023 54.185 59.786 54.185 C 61.171 54.185 62.499 53.635 63.478 52.656 C 64.457 51.677 65.007 50.349 65.007 48.964 C 65.007 41.201 65.007 26.700 65.007 18.937 Z " transform="matrix(2.1804099082946777, 0, 0, 2.1804099082946777, 192.45, 211.4)"/>
  </g>
  <g id="ID0.9895662530325353" transform="matrix(1, 0, 0, 1, 9, 15)">
    <path id="ID0.459288839250803" fill="none" stroke="rgb(255,0,0)" stroke-width="2.71" d="M 65.007 18.937 C 65.007 17.552 64.457 16.224 63.478 15.245 C 62.499 14.266 61.171 13.716 59.786 13.716 C 52.023 13.716 37.522 13.716 29.759 13.716 C 28.374 13.716 27.046 14.266 26.067 15.245 C 25.088 16.224 24.538 17.552 24.538 18.937 C 24.538 26.700 24.538 41.201 24.538 48.964 C 24.538 50.349 25.088 51.677 26.067 52.656 C 27.046 53.635 28.374 54.185 29.759 54.185 C 37.522 54.185 52.023 54.185 59.786 54.185 C 61.171 54.185 62.499 53.635 63.478 52.656 C 64.457 51.677 65.007 50.349 65.007 48.964 C 65.007 41.201 65.007 26.700 65.007 18.937 Z " transform="matrix(2.1804099082946777, 0, 0, 2.1804099082946777, 313.35, 211.85)"/>
  </g>
  <g id="ID0.12989524053409696" transform="matrix(1, 0, 0, 1, 9, 15)">
    <g id="ID0.934607224073261">
      <path id="ID0.13109546341001987" fill="none" stroke="rgb(0,231,75)" stroke-width="2.71" d="M 0 -4.377 C 1.208 -4.377 2.302 -3.887 3.094 -3.094 C 3.887 -2.302 4.377 -1.208 4.377 0 C 4.377 1.208 3.887 2.302 3.094 3.094 C 2.302 3.887 1.208 4.377 0 4.377 C -1.208 4.377 -2.302 3.887 -3.094 3.094 C -3.887 2.302 -4.377 1.208 -4.377 0 C -4.377 -1.208 -3.887 -2.302 -3.094 -3.094 C -2.302 -3.887 -1.208 -4.377 0 -4.377 Z " transform="matrix(-1.6535377502441406, 1.4212675094604492, -1.4212675094604492, -1.6535377502441406, 313.9, 24.9)"/>
    </g>
    <g id="ID0.7237157942727208">
      <path id="ID0.45751164481043816" fill="none" stroke="rgb(0,231,75)" stroke-width="2.71" d="M 0 -4.377 C 1.208 -4.377 2.302 -3.887 3.094 -3.094 C 3.887 -2.302 4.377 -1.208 4.377 0 C 4.377 1.208 3.887 2.302 3.094 3.094 C 2.302 3.887 1.208 4.377 0 4.377 C -1.208 4.377 -2.302 3.887 -3.094 3.094 C -3.887 2.302 -4.377 1.208 -4.377 0 C -4.377 -1.208 -3.887 -2.302 -3.094 -3.094 C -2.302 -3.887 -1.208 -4.377 0 -4.377 Z " transform="matrix(-1.6535377502441406, 1.4212675094604492, -1.4212675094604492, -1.6535377502441406, 267.55, 74.5)"/>
    </g>
    <g id="ID0.9195477492175996">
      <path id="ID0.8727391930297017" fill="none" stroke="rgb(0,231,75)" stroke-width="2.71" d="M 0 -4.377 C 1.208 -4.377 2.302 -3.887 3.094 -3.094 C 3.887 -2.302 4.377 -1.208 4.377 0 C 4.377 1.208 3.887 2.302 3.094 3.094 C 2.302 3.887 1.208 4.377 0 4.377 C -1.208 4.377 -2.302 3.887 -3.094 3.094 C -3.887 2.302 -4.377 1.208 -4.377 0 C -4.377 -1.208 -3.887 -2.302 -3.094 -3.094 C -2.302 -3.887 -1.208 -4.377 0 -4.377 Z " transform="matrix(-1.6535377502441406, 1.4212675094604492, -1.4212675094604492, -1.6535377502441406, 291.1, 49.3)"/>
    </g>
  </g>
  <g id="ID0.1499876296147704" transform="matrix(1, 0, 0, 1, 9, 15)">
    <g id="ID0.5961713576689363">
      <path id="ID0.8454078058712184" fill="none" stroke="rgb(255,0,0)" stroke-width="2.71" d="M 0 -4.377 C 1.208 -4.377 2.302 -3.887 3.094 -3.094 C 3.887 -2.302 4.377 -1.208 4.377 0 C 4.377 1.208 3.887 2.302 3.094 3.094 C 2.302 3.887 1.208 4.377 0 4.377 C -1.208 4.377 -2.302 3.887 -3.094 3.094 C -3.887 2.302 -4.377 1.208 -4.377 0 C -4.377 -1.208 -3.887 -2.302 -3.094 -3.094 C -2.302 -3.887 -1.208 -4.377 0 -4.377 Z " transform="matrix(-1.6535377502441406, 1.4212675094604492, -1.4212675094604492, -1.6535377502441406, 434.25, 261.15)"/>
    </g>
    <g id="ID0.051907061599195004">
      <path id="ID0.040113828144967556" fill="none" stroke="rgb(255,0,0)" stroke-width="2.71" d="M 0 -4.377 C 1.208 -4.377 2.302 -3.887 3.094 -3.094 C 3.887 -2.302 4.377 -1.208 4.377 0 C 4.377 1.208 3.887 2.302 3.094 3.094 C 2.302 3.887 1.208 4.377 0 4.377 C -1.208 4.377 -2.302 3.887 -3.094 3.094 C -3.887 2.302 -4.377 1.208 -4.377 0 C -4.377 -1.208 -3.887 -2.302 -3.094 -3.094 C -2.302 -3.887 -1.208 -4.377 0 -4.377 Z " transform="matrix(-1.6535377502441406, 1.4212675094604492, -1.4212675094604492, -1.6535377502441406, 387.8, 310.65)"/>
    </g>
    <g id="ID0.6034004702232778">
      <path id="ID0.7548117958940566" fill="none" stroke="rgb(255,0,0)" stroke-width="2.71" d="M 0 -4.377 C 1.208 -4.377 2.302 -3.887 3.094 -3.094 C 3.887 -2.302 4.377 -1.208 4.377 0 C 4.377 1.208 3.887 2.302 3.094 3.094 C 2.302 3.887 1.208 4.377 0 4.377 C -1.208 4.377 -2.302 3.887 -3.094 3.094 C -3.887 2.302 -4.377 1.208 -4.377 0 C -4.377 -1.208 -3.887 -2.302 -3.094 -3.094 C -2.302 -3.887 -1.208 -4.377 0 -4.377 Z " transform="matrix(-1.6535377502441406, 1.4212675094604492, -1.4212675094604492, -1.6535377502441406, 411.35, 285.45)"/>
    </g>
  </g>
  <g id="ID0.40897493343800306" transform="matrix(1, 0, 0, 1, 9, 15)">
    <path id="ID0.2670845612883568" fill="none" stroke="rgb(255,0,248)" stroke-width="2.71" d="M 65.007 18.937 C 65.007 17.552 64.457 16.224 63.478 15.245 C 62.499 14.266 61.171 13.716 59.786 13.716 C 52.023 13.716 37.522 13.716 29.759 13.716 C 28.374 13.716 27.046 14.266 26.067 15.245 C 25.088 16.224 24.538 17.552 24.538 18.937 C 24.538 26.700 24.538 41.201 24.538 48.964 C 24.538 50.349 25.088 51.677 26.067 52.656 C 27.046 53.635 28.374 54.185 29.759 54.185 C 37.522 54.185 52.023 54.185 59.786 54.185 C 61.171 54.185 62.499 53.635 63.478 52.656 C 64.457 51.677 65.007 50.349 65.007 48.964 C 65.007 41.201 65.007 26.700 65.007 18.937 Z " transform="matrix(2.1804099082946777, 0, 0, 2.1804099082946777, 313.35, -24.35)"/>
    <g id="ID0.6302512492984533">
      <g id="ID0.29616692988201976">
        <path id="ID0.9512569857761264" fill="none" stroke="rgb(255,0,248)" stroke-width="2.71" d="M 0 -4.377 C 1.208 -4.377 2.302 -3.887 3.094 -3.094 C 3.887 -2.302 4.377 -1.208 4.377 0 C 4.377 1.208 3.887 2.302 3.094 3.094 C 2.302 3.887 1.208 4.377 0 4.377 C -1.208 4.377 -2.302 3.887 -3.094 3.094 C -3.887 2.302 -4.377 1.208 -4.377 0 C -4.377 -1.208 -3.887 -2.302 -3.094 -3.094 C -2.302 -3.887 -1.208 -4.377 0 -4.377 Z " transform="matrix(-1.6535377502441406, 1.4212675094604492, -1.4212675094604492, -1.6535377502441406, 390.2, 28.15)"/>
      </g>
      <g id="ID0.2766810320317745">
        <path id="ID0.14818252064287663" fill="none" stroke="rgb(255,0,248)" stroke-width="2.71" d="M 0 -4.377 C 1.208 -4.377 2.302 -3.887 3.094 -3.094 C 3.887 -2.302 4.377 -1.208 4.377 0 C 4.377 1.208 3.887 2.302 3.094 3.094 C 2.302 3.887 1.208 4.377 0 4.377 C -1.208 4.377 -2.302 3.887 -3.094 3.094 C -3.887 2.302 -4.377 1.208 -4.377 0 C -4.377 -1.208 -3.887 -2.302 -3.094 -3.094 C -2.302 -3.887 -1.208 -4.377 0 -4.377 Z " transform="matrix(-1.6535377502441406, 1.4212675094604492, -1.4212675094604492, -1.6535377502441406, 431.1, 28.15)"/>
      </g>
    </g>
    <g id="ID0.8122631483711302">
      <g id="ID0.676288677379489">
        <path id="ID0.43606431875377893" fill="none" stroke="rgb(255,0,248)" stroke-width="2.71" d="M 0 -4.377 C 1.208 -4.377 2.302 -3.887 3.094 -3.094 C 3.887 -2.302 4.377 -1.208 4.377 0 C 4.377 1.208 3.887 2.302 3.094 3.094 C 2.302 3.887 1.208 4.377 0 4.377 C -1.208 4.377 -2.302 3.887 -3.094 3.094 C -3.887 2.302 -4.377 1.208 -4.377 0 C -4.377 -1.208 -3.887 -2.302 -3.094 -3.094 C -2.302 -3.887 -1.208 -4.377 0 -4.377 Z " transform="matrix(-1.6535377502441406, 1.4212675094604492, -1.4212675094604492, -1.6535377502441406, 390.55, 68.85)"/>
      </g>
      <g id="ID0.07678944105282426">
        <path id="ID0.9810385932214558" fill="none" stroke="rgb(255,0,248)" stroke-width="2.71" d="M 0 -4.377 C 1.208 -4.377 2.302 -3.887 3.094 -3.094 C 3.887 -2.302 4.377 -1.208 4.377 0 C 4.377 1.208 3.887 2.302 3.094 3.094 C 2.302 3.887 1.208 4.377 0 4.377 C -1.208 4.377 -2.302 3.887 -3.094 3.094 C -3.887 2.302 -4.377 1.208 -4.377 0 C -4.377 -1.208 -3.887 -2.302 -3.094 -3.094 C -2.302 -3.887 -1.208 -4.377 0 -4.377 Z " transform="matrix(-1.6535377502441406, 1.4212675094604492, -1.4212675094604492, -1.6535377502441406, 431.55, 68.85)"/>
      </g>
    </g>
  </g>
  <g id="ID0.11169067025184631" transform="matrix(1, 0, 0, 1, 9, 15)">
    <g id="ID0.4094763360917568">
      <path id="ID0.28999216947704554" fill="none" stroke="rgb(0,231,75)" stroke-width="2.71" d="M 0 -4.377 C 1.208 -4.377 2.302 -3.887 3.094 -3.094 C 3.887 -2.302 4.377 -1.208 4.377 0 C 4.377 1.208 3.887 2.302 3.094 3.094 C 2.302 3.887 1.208 4.377 0 4.377 C -1.208 4.377 -2.302 3.887 -3.094 3.094 C -3.887 2.302 -4.377 1.208 -4.377 0 C -4.377 -1.208 -3.887 -2.302 -3.094 -3.094 C -2.302 -3.887 -1.208 -4.377 0 -4.377 Z " transform="matrix(-1.6535377502441406, 1.4212675094604492, -1.4212675094604492, -1.6535377502441406, 23.25, 144.6)"/>
    </g>
    <g id="ID0.2846496948041022">
      <path id="ID0.7445246810093522" fill="none" stroke="rgb(0,231,75)" stroke-width="2.71" d="M 0 -4.377 C 1.208 -4.377 2.302 -3.887 3.094 -3.094 C 3.887 -2.302 4.377 -1.208 4.377 0 C 4.377 1.208 3.887 2.302 3.094 3.094 C 2.302 3.887 1.208 4.377 0 4.377 C -1.208 4.377 -2.302 3.887 -3.094 3.094 C -3.887 2.302 -4.377 1.208 -4.377 0 C -4.377 -1.208 -3.887 -2.302 -3.094 -3.094 C -2.302 -3.887 -1.208 -4.377 0 -4.377 Z " transform="matrix(-1.6535377502441406, 1.4212675094604492, -1.4212675094604492, -1.6535377502441406, 72.95, 144.6)"/>
    </g>
    <g id="ID0.30210296902805567">
      <path id="ID0.077921895775944" fill="none" stroke="rgb(0,231,75)" stroke-width="2.71" d="M 0 -4.377 C 1.208 -4.377 2.302 -3.887 3.094 -3.094 C 3.887 -2.302 4.377 -1.208 4.377 0 C 4.377 1.208 3.887 2.302 3.094 3.094 C 2.302 3.887 1.208 4.377 0 4.377 C -1.208 4.377 -2.302 3.887 -3.094 3.094 C -3.887 2.302 -4.377 1.208 -4.377 0 C -4.377 -1.208 -3.887 -2.302 -3.094 -3.094 C -2.302 -3.887 -1.208 -4.377 0 -4.377 Z " transform="matrix(-1.6535377502441406, 1.4212675094604492, -1.4212675094604492, -1.6535377502441406, 48.3, 166.6)"/>
    </g>
    <g id="ID0.25222942512482405">
      <path id="ID0.5225230744108558" fill="none" stroke="rgb(0,231,75)" stroke-width="2.71" d="M 0 -4.377 C 1.208 -4.377 2.302 -3.887 3.094 -3.094 C 3.887 -2.302 4.377 -1.208 4.377 0 C 4.377 1.208 3.887 2.302 3.094 3.094 C 2.302 3.887 1.208 4.377 0 4.377 C -1.208 4.377 -2.302 3.887 -3.094 3.094 C -3.887 2.302 -4.377 1.208 -4.377 0 C -4.377 -1.208 -3.887 -2.302 -3.094 -3.094 C -2.302 -3.887 -1.208 -4.377 0 -4.377 Z " transform="matrix(-1.6535377502441406, 1.4212675094604492, -1.4212675094604492, -1.6535377502441406, 23.25, 189.6)"/>
    </g>
    <g id="ID0.06940420251339674">
      <path id="ID0.45368342800065875" fill="none" stroke="rgb(0,231,75)" stroke-width="2.71" d="M 0 -4.377 C 1.208 -4.377 2.302 -3.887 3.094 -3.094 C 3.887 -2.302 4.377 -1.208 4.377 0 C 4.377 1.208 3.887 2.302 3.094 3.094 C 2.302 3.887 1.208 4.377 0 4.377 C -1.208 4.377 -2.302 3.887 -3.094 3.094 C -3.887 2.302 -4.377 1.208 -4.377 0 C -4.377 -1.208 -3.887 -2.302 -3.094 -3.094 C -2.302 -3.887 -1.208 -4.377 0 -4.377 Z " transform="matrix(-1.6535377502441406, 1.4212675094604492, -1.4212675094604492, -1.6535377502441406, 72.95, 189.6)"/>
    </g>
  </g>
  <g id="ID0.31610726471990347" transform="matrix(1, 0, 0, 1, 9, 15)">
    <path id="ID0.8961850544437766" fill="none" stroke="rgb(255,150,0)" stroke-width="2.71" d="M 65.007 18.937 C 65.007 17.552 64.457 16.224 63.478 15.245 C 62.499 14.266 61.171 13.716 59.786 13.716 C 52.023 13.716 37.522 13.716 29.759 13.716 C 28.374 13.716 27.046 14.266 26.067 15.245 C 25.088 16.224 24.538 17.552 24.538 18.937 C 24.538 26.700 24.538 41.201 24.538 48.964 C 24.538 50.349 25.088 51.677 26.067 52.656 C 27.046 53.635 28.374 54.185 29.759 54.185 C 37.522 54.185 52.023 54.185 59.786 54.185 C 61.171 54.185 62.499 53.635 63.478 52.656 C 64.457 51.677 65.007 50.349 65.007 48.964 C 65.007 41.201 65.007 26.700 65.007 18.937 Z " transform="matrix(2.1804099082946777, 0, 0, 2.1804099082946777, 71.45, 92.9)"/>
    <g id="ID0.006779720075428486">
      <g id="ID0.5272401156835258">
        <path id="ID0.06705579720437527" fill="none" stroke="rgb(255,150,0)" stroke-width="2.71" d="M 0 -4.377 C 1.208 -4.377 2.302 -3.887 3.094 -3.094 C 3.887 -2.302 4.377 -1.208 4.377 0 C 4.377 1.208 3.887 2.302 3.094 3.094 C 2.302 3.887 1.208 4.377 0 4.377 C -1.208 4.377 -2.302 3.887 -3.094 3.094 C -3.887 2.302 -4.377 1.208 -4.377 0 C -4.377 -1.208 -3.887 -2.302 -3.094 -3.094 C -2.302 -3.887 -1.208 -4.377 0 -4.377 Z " transform="matrix(-1.6535377502441406, 1.4212675094604492, -1.4212675094604492, -1.6535377502441406, 148.3, 145.45)"/>
      </g>
      <g id="ID0.6523802457377315">
        <path id="ID0.17862069886177778" fill="none" stroke="rgb(255,150,0)" stroke-width="2.71" d="M 0 -4.377 C 1.208 -4.377 2.302 -3.887 3.094 -3.094 C 3.887 -2.302 4.377 -1.208 4.377 0 C 4.377 1.208 3.887 2.302 3.094 3.094 C 2.302 3.887 1.208 4.377 0 4.377 C -1.208 4.377 -2.302 3.887 -3.094 3.094 C -3.887 2.302 -4.377 1.208 -4.377 0 C -4.377 -1.208 -3.887 -2.302 -3.094 -3.094 C -2.302 -3.887 -1.208 -4.377 0 -4.377 Z " transform="matrix(-1.6535377502441406, 1.4212675094604492, -1.4212675094604492, -1.6535377502441406, 189.2, 145.45)"/>
      </g>
    </g>
    <g id="ID0.23136428138241172">
      <g id="ID0.3083009677939117">
        <path id="ID0.46629632310941815" fill="none" stroke="rgb(255,150,0)" stroke-width="2.71" d="M 0 -4.377 C 1.208 -4.377 2.302 -3.887 3.094 -3.094 C 3.887 -2.302 4.377 -1.208 4.377 0 C 4.377 1.208 3.887 2.302 3.094 3.094 C 2.302 3.887 1.208 4.377 0 4.377 C -1.208 4.377 -2.302 3.887 -3.094 3.094 C -3.887 2.302 -4.377 1.208 -4.377 0 C -4.377 -1.208 -3.887 -2.302 -3.094 -3.094 C -2.302 -3.887 -1.208 -4.377 0 -4.377 Z " transform="matrix(-1.6535377502441406, 1.4212675094604492, -1.4212675094604492, -1.6535377502441406, 148.6, 186.15)"/>
      </g>
      <g id="ID0.9182515610009432">
        <path id="ID0.6767299217171967" fill="none" stroke="rgb(255,150,0)" stroke-width="2.71" d="M 0 -4.377 C 1.208 -4.377 2.302 -3.887 3.094 -3.094 C 3.887 -2.302 4.377 -1.208 4.377 0 C 4.377 1.208 3.887 2.302 3.094 3.094 C 2.302 3.887 1.208 4.377 0 4.377 C -1.208 4.377 -2.302 3.887 -3.094 3.094 C -3.887 2.302 -4.377 1.208 -4.377 0 C -4.377 -1.208 -3.887 -2.302 -3.094 -3.094 C -2.302 -3.887 -1.208 -4.377 0 -4.377 Z " transform="matrix(-1.6535377502441406, 1.4212675094604492, -1.4212675094604492, -1.6535377502441406, 189.6, 186.15)"/>
      </g>
    </g>
  </g>
  <g id="ID0.8578878962434828" transform="matrix(1, 0, 0, 1, 9, 15)">
    <g id="ID0.8580945525318384">
      <path id="ID0.6363458428531885" fill="none" stroke="rgb(255,0,0)" stroke-width="2.71" d="M 0 -4.377 C 1.208 -4.377 2.302 -3.887 3.094 -3.094 C 3.887 -2.302 4.377 -1.208 4.377 0 C 4.377 1.208 3.887 2.302 3.094 3.094 C 2.302 3.887 1.208 4.377 0 4.377 C -1.208 4.377 -2.302 3.887 -3.094 3.094 C -3.887 2.302 -4.377 1.208 -4.377 0 C -4.377 -1.208 -3.887 -2.302 -3.094 -3.094 C -2.302 -3.887 -1.208 -4.377 0 -4.377 Z " transform="matrix(-0.16423998773097992, 2.1742165088653564, -2.1742165088653564, -0.16423998773097992, 275.5, 181.75)"/>
    </g>
    <g id="ID0.9738371246494353">
      <path id="ID0.18304906506091356" fill="none" stroke="rgb(255,0,0)" stroke-width="2.71" d="M 0 -4.377 C 1.208 -4.377 2.302 -3.887 3.094 -3.094 C 3.887 -2.302 4.377 -1.208 4.377 0 C 4.377 1.208 3.887 2.302 3.094 3.094 C 2.302 3.887 1.208 4.377 0 4.377 C -1.208 4.377 -2.302 3.887 -3.094 3.094 C -3.887 2.302 -4.377 1.208 -4.377 0 C -4.377 -1.208 -3.887 -2.302 -3.094 -3.094 C -2.302 -3.887 -1.208 -4.377 0 -4.377 Z " transform="matrix(-0.16423998773097992, 2.1742165088653564, -2.1742165088653564, -0.16423998773097992, 304.5, 152.9)"/>
    </g>
  </g>
  <g id="ID0.09845481114462018" transform="matrix(1, 0, 0, 1, 9, 15)">
    <path id="ID0.20331498747691512" fill="none" stroke="rgb(0,107,255)" stroke-width="2.71" d="M 65.007 18.937 C 65.007 17.552 64.457 16.224 63.478 15.245 C 62.499 14.266 61.171 13.716 59.786 13.716 C 52.023 13.716 37.522 13.716 29.759 13.716 C 28.374 13.716 27.046 14.266 26.067 15.245 C 25.088 16.224 24.538 17.552 24.538 18.937 C 24.538 26.700 24.538 41.201 24.538 48.964 C 24.538 50.349 25.088 51.677 26.067 52.656 C 27.046 53.635 28.374 54.185 29.759 54.185 C 37.522 54.185 52.023 54.185 59.786 54.185 C 61.171 54.185 62.499 53.635 63.478 52.656 C 64.457 51.677 65.007 50.349 65.007 48.964 C 65.007 41.201 65.007 26.700 65.007 18.937 Z " transform="matrix(2.1804099082946777, 0, 0, 2.1804099082946777, 71.45, 211)"/>
    <g id="ID0.325218599755317">
      <g id="ID0.347955537494272">
        <path id="ID0.919791528955102" fill="none" stroke="rgb(0,107,255)" stroke-width="2.71" d="M 0 -4.377 C 1.208 -4.377 2.302 -3.887 3.094 -3.094 C 3.887 -2.302 4.377 -1.208 4.377 0 C 4.377 1.208 3.887 2.302 3.094 3.094 C 2.302 3.887 1.208 4.377 0 4.377 C -1.208 4.377 -2.302 3.887 -3.094 3.094 C -3.887 2.302 -4.377 1.208 -4.377 0 C -4.377 -1.208 -3.887 -2.302 -3.094 -3.094 C -2.302 -3.887 -1.208 -4.377 0 -4.377 Z " transform="matrix(-1.6535377502441406, 1.4212675094604492, -1.4212675094604492, -1.6535377502441406, 148.3, 263.65)"/>
      </g>
      <g id="ID0.8875436596572399">
        <path id="ID0.9831749238073826" fill="none" stroke="rgb(0,107,255)" stroke-width="2.71" d="M 0 -4.377 C 1.208 -4.377 2.302 -3.887 3.094 -3.094 C 3.887 -2.302 4.377 -1.208 4.377 0 C 4.377 1.208 3.887 2.302 3.094 3.094 C 2.302 3.887 1.208 4.377 0 4.377 C -1.208 4.377 -2.302 3.887 -3.094 3.094 C -3.887 2.302 -4.377 1.208 -4.377 0 C -4.377 -1.208 -3.887 -2.302 -3.094 -3.094 C -2.302 -3.887 -1.208 -4.377 0 -4.377 Z " transform="matrix(-1.6535377502441406, 1.4212675094604492, -1.4212675094604492, -1.6535377502441406, 189.2, 263.65)"/>
      </g>
    </g>
    <g id="ID0.40098917623981833">
      <g id="ID0.3931271224282682">
        <path id="ID0.6889483681879938" fill="none" stroke="rgb(0,107,255)" stroke-width="2.71" d="M 0 -4.377 C 1.208 -4.377 2.302 -3.887 3.094 -3.094 C 3.887 -2.302 4.377 -1.208 4.377 0 C 4.377 1.208 3.887 2.302 3.094 3.094 C 2.302 3.887 1.208 4.377 0 4.377 C -1.208 4.377 -2.302 3.887 -3.094 3.094 C -3.887 2.302 -4.377 1.208 -4.377 0 C -4.377 -1.208 -3.887 -2.302 -3.094 -3.094 C -2.302 -3.887 -1.208 -4.377 0 -4.377 Z " transform="matrix(-1.6535377502441406, 1.4212675094604492, -1.4212675094604492, -1.6535377502441406, 148.6, 304.2)"/>
      </g>
      <g id="ID0.3961902167648077">
        <path id="ID0.3062157821841538" fill="none" stroke="rgb(0,107,255)" stroke-width="2.71" d="M 0 -4.377 C 1.208 -4.377 2.302 -3.887 3.094 -3.094 C 3.887 -2.302 4.377 -1.208 4.377 0 C 4.377 1.208 3.887 2.302 3.094 3.094 C 2.302 3.887 1.208 4.377 0 4.377 C -1.208 4.377 -2.302 3.887 -3.094 3.094 C -3.887 2.302 -4.377 1.208 -4.377 0 C -4.377 -1.208 -3.887 -2.302 -3.094 -3.094 C -2.302 -3.887 -1.208 -4.377 0 -4.377 Z " transform="matrix(-1.6535377502441406, 1.4212675094604492, -1.4212675094604492, -1.6535377502441406, 189.6, 304.2)"/>
      </g>
    </g>
  </g>
  <g id="ID0.15901199309155345" transform="matrix(1, 0, 0, 1, 9, 15)">
    <g id="ID0.28774446388706565">
      <g id="ID0.8071553255431354">
        <path id="ID0.08717821445316076" fill="none" stroke="rgb(255,150,0)" stroke-width="2.71" d="M 0 -4.377 C 1.208 -4.377 2.302 -3.887 3.094 -3.094 C 3.887 -2.302 4.377 -1.208 4.377 0 C 4.377 1.208 3.887 2.302 3.094 3.094 C 2.302 3.887 1.208 4.377 0 4.377 C -1.208 4.377 -2.302 3.887 -3.094 3.094 C -3.887 2.302 -4.377 1.208 -4.377 0 C -4.377 -1.208 -3.887 -2.302 -3.094 -3.094 C -2.302 -3.887 -1.208 -4.377 0 -4.377 Z " transform="matrix(-1.6535377502441406, 1.4212675094604492, -1.4212675094604492, -1.6535377502441406, 269.4, 265.15)"/>
      </g>
      <g id="ID0.03282433236017823">
        <path id="ID0.16036611888557673" fill="none" stroke="rgb(255,150,0)" stroke-width="2.71" d="M 0 -4.377 C 1.208 -4.377 2.302 -3.887 3.094 -3.094 C 3.887 -2.302 4.377 -1.208 4.377 0 C 4.377 1.208 3.887 2.302 3.094 3.094 C 2.302 3.887 1.208 4.377 0 4.377 C -1.208 4.377 -2.302 3.887 -3.094 3.094 C -3.887 2.302 -4.377 1.208 -4.377 0 C -4.377 -1.208 -3.887 -2.302 -3.094 -3.094 C -2.302 -3.887 -1.208 -4.377 0 -4.377 Z " transform="matrix(-1.6535377502441406, 1.4212675094604492, -1.4212675094604492, -1.6535377502441406, 310.4, 265.15)"/>
      </g>
    </g>
    <g id="ID0.9785815845243633">
      <g id="ID0.027841744013130665">
        <path id="ID0.990956817753613" fill="none" stroke="rgb(255,150,0)" stroke-width="2.71" d="M 0 -4.377 C 1.208 -4.377 2.302 -3.887 3.094 -3.094 C 3.887 -2.302 4.377 -1.208 4.377 0 C 4.377 1.208 3.887 2.302 3.094 3.094 C 2.302 3.887 1.208 4.377 0 4.377 C -1.208 4.377 -2.302 3.887 -3.094 3.094 C -3.887 2.302 -4.377 1.208 -4.377 0 C -4.377 -1.208 -3.887 -2.302 -3.094 -3.094 C -2.302 -3.887 -1.208 -4.377 0 -4.377 Z " transform="matrix(-1.6535377502441406, 1.4212675094604492, -1.4212675094604492, -1.6535377502441406, 269.75, 305.85)"/>
      </g>
      <g id="ID0.10016150260344148">
        <path id="ID0.44130306830629706" fill="none" stroke="rgb(255,150,0)" stroke-width="2.71" d="M 0 -4.377 C 1.208 -4.377 2.302 -3.887 3.094 -3.094 C 3.887 -2.302 4.377 -1.208 4.377 0 C 4.377 1.208 3.887 2.302 3.094 3.094 C 2.302 3.887 1.208 4.377 0 4.377 C -1.208 4.377 -2.302 3.887 -3.094 3.094 C -3.887 2.302 -4.377 1.208 -4.377 0 C -4.377 -1.208 -3.887 -2.302 -3.094 -3.094 C -2.302 -3.887 -1.208 -4.377 0 -4.377 Z " transform="matrix(-1.6535377502441406, 1.4212675094604492, -1.4212675094604492, -1.6535377502441406, 310.75, 305.85)"/>
      </g>
    </g>
  </g>
</svg>